<svg width="1041" height="631" viewBox="0 0 1041 631" fill="none" xmlns="http://www.w3.org/2000/svg">
<mask id="mask0_82_23" style="mask-type:luminance" maskUnits="userSpaceOnUse" x="240" y="391" width="127" height="144">
<path d="M240 391.857H366.182V534.881H240V391.857Z" fill="white"/>
</mask>
<g mask="url(#mask0_82_23)">
<path d="M366.147 391.954L354.66 520.567L303.025 534.873L251.533 520.587L240.059 391.954L366.145 391.952H366.15L366.147 391.954Z" fill="#E44D26"/>
</g>
<path d="M303.105 523.94L344.83 512.38L354.646 402.475L303.105 402.473V523.94Z" fill="#F16529"/>
<path d="M280.775 434.027H303.105V418.249H263.523L263.901 422.482L267.781 465.958H303.105V450.185H282.217L280.775 434.027Z" fill="#EBEBEB"/>
<path d="M284.333 473.846H268.486L270.698 498.618L303.031 507.589L303.105 507.57V491.155L303.036 491.175L285.456 486.427L284.333 473.846Z" fill="#EBEBEB"/>
<mask id="mask1_82_23" style="mask-type:luminance" maskUnits="userSpaceOnUse" x="251" y="357" width="25" height="25">
<path d="M251.694 357H275.201V381.038H251.694V357Z" fill="white"/>
</mask>
<g mask="url(#mask1_82_23)">
<path d="M251.792 357H259.813V364.921H267.151V357H275.173V380.987H267.151V372.954H259.813V380.987H251.792V357Z" fill="black"/>
</g>
<mask id="mask2_82_23" style="mask-type:luminance" maskUnits="userSpaceOnUse" x="278" y="357" width="23" height="25">
<path d="M278.559 357H300.822V381.038H278.559V357Z" fill="white"/>
</mask>
<g mask="url(#mask2_82_23)">
<path d="M285.724 364.954H278.662V357H300.813V364.954H293.745V380.987H285.725V364.954H285.724Z" fill="black"/>
</g>
<mask id="mask3_82_23" style="mask-type:luminance" maskUnits="userSpaceOnUse" x="304" y="357" width="28" height="25">
<path d="M304.303 357H331.416V381.038H304.303V357Z" fill="white"/>
</mask>
<g mask="url(#mask3_82_23)">
<path d="M304.328 357H312.69L317.836 365.428L322.976 357H331.344V380.987H323.357V369.098L317.836 377.626H317.697L312.176 369.098V380.987H304.328V357Z" fill="black"/>
</g>
<mask id="mask4_82_23" style="mask-type:luminance" maskUnits="userSpaceOnUse" x="335" y="357" width="20" height="25">
<path d="M335.272 357H354.674V381.038H335.272V357Z" fill="white"/>
</mask>
<g mask="url(#mask4_82_23)">
<path d="M335.335 357H343.357V373.058H354.641V380.987H335.335V357Z" fill="black"/>
</g>
<path d="M303.051 465.956H322.49L320.656 486.417L303.051 491.169V507.579L335.41 498.618L335.647 495.951L339.359 454.417L339.745 450.183H303.051V465.956Z" fill="white"/>
<path d="M303.051 433.987V434.027H341.178L341.494 430.479L342.216 422.482L342.592 418.249H303.051V433.987Z" fill="white"/>
<path fill-rule="evenodd" clip-rule="evenodd" d="M910.828 75.2291C913.742 73.5943 917.33 73.5943 920.239 75.2291C934.637 83.3079 977.963 107.626 992.364 115.704C995.278 117.335 997.072 120.355 997.072 123.625C997.072 139.782 997.072 188.414 997.072 204.571C997.072 207.841 995.278 210.861 992.364 212.496C977.967 220.575 934.641 244.892 920.239 252.971C917.326 254.606 913.738 254.606 910.828 252.971C896.431 244.892 853.105 220.575 838.703 212.496C835.794 210.861 834 207.845 834 204.576C834 188.418 834 139.786 834 123.629C834 120.36 835.794 117.339 838.708 115.704C853.101 107.626 896.435 83.3079 910.828 75.2291Z" fill="#283593"/>
<path fill-rule="evenodd" clip-rule="evenodd" d="M835.304 208.737C834.163 207.209 834 205.759 834 203.807C834 187.743 834 139.391 834 123.323C834 120.071 835.789 117.068 838.695 115.446C853.041 107.415 896.22 83.2385 910.566 75.2024C913.472 73.5764 917.407 73.6109 920.312 75.2369C934.659 83.2681 977.692 107.239 992.038 115.27C993.197 115.923 994.081 116.708 994.871 117.741L835.304 208.737Z" fill="#5C6BC0"/>
<path fill-rule="evenodd" clip-rule="evenodd" d="M915.536 104.035C948.696 104.035 975.615 130.949 975.615 164.101C975.615 197.252 948.696 224.166 915.536 224.166C882.377 224.166 855.457 197.252 855.457 164.101C855.457 130.949 882.377 104.035 915.536 104.035ZM915.536 134.068C932.113 134.068 945.576 147.523 945.576 164.101C945.576 180.675 932.113 194.133 915.536 194.133C898.959 194.133 885.496 180.675 885.496 164.101C885.496 147.523 898.954 134.068 915.536 134.068Z" fill="white"/>
<path fill-rule="evenodd" clip-rule="evenodd" d="M994.862 117.783C997.076 119.855 997.034 122.979 997.034 125.437C997.034 141.719 996.896 188.03 997.072 204.312C997.09 206.011 996.527 207.8 995.686 209.147L913.79 164.098L994.862 117.783Z" fill="#3949AB"/>
<path fill-rule="evenodd" clip-rule="evenodd" d="M958.45 146.937H962.741V181.26H958.45V146.937ZM971.324 146.937H975.615V181.26H971.324V146.937Z" fill="white"/>
<path fill-rule="evenodd" clip-rule="evenodd" d="M949.867 168.389H984.198V172.68H949.867V168.389ZM949.867 155.518H984.198V159.809H949.867V155.518Z" fill="white"/>
<mask id="mask5_82_23" style="mask-type:luminance" maskUnits="userSpaceOnUse" x="633" y="377" width="178" height="178">
<path d="M633 377H810.323V554.323H633V377Z" fill="white"/>
</mask>
<g mask="url(#mask5_82_23)">
<path d="M806.977 457.767L729.559 380.349C729.427 380.217 729.292 380.087 729.154 379.962C729.015 379.837 728.874 379.714 728.729 379.596C728.585 379.477 728.437 379.362 728.287 379.251C728.137 379.139 727.985 379.032 727.829 378.928C727.674 378.824 727.516 378.724 727.355 378.628C727.196 378.532 727.033 378.44 726.868 378.352C726.703 378.264 726.536 378.179 726.367 378.1C726.199 378.02 726.028 377.944 725.855 377.872C725.682 377.801 725.508 377.734 725.332 377.671C725.156 377.608 724.979 377.549 724.8 377.495C724.621 377.441 724.441 377.391 724.26 377.345C724.079 377.3 723.896 377.259 723.713 377.222C723.53 377.186 723.346 377.154 723.161 377.127C722.976 377.099 722.791 377.077 722.605 377.058C722.418 377.04 722.232 377.026 722.046 377.017C721.859 377.008 721.672 377.003 721.485 377.003C721.299 377.003 721.112 377.008 720.925 377.017C720.738 377.026 720.552 377.04 720.366 377.058C720.18 377.077 719.995 377.099 719.81 377.127C719.625 377.154 719.441 377.186 719.258 377.222C719.075 377.259 718.892 377.3 718.711 377.345C718.529 377.391 718.35 377.441 718.171 377.495C717.992 377.549 717.815 377.608 717.638 377.671C717.463 377.734 717.288 377.801 717.116 377.872C716.943 377.944 716.772 378.02 716.604 378.1C716.435 378.179 716.267 378.264 716.103 378.352C715.938 378.44 715.775 378.532 715.615 378.628C715.455 378.724 715.297 378.824 715.142 378.928C714.986 379.032 714.834 379.139 714.684 379.251C714.533 379.362 714.386 379.477 714.242 379.596C714.097 379.714 713.956 379.837 713.817 379.962C713.679 380.087 713.544 380.217 713.412 380.349L697.342 396.418L717.734 416.811C722.477 415.148 727.908 416.284 731.687 420.064C731.911 420.287 732.126 420.519 732.333 420.758C732.541 420.996 732.739 421.243 732.929 421.495C733.12 421.748 733.301 422.007 733.473 422.273C733.644 422.538 733.807 422.81 733.96 423.086C734.113 423.363 734.257 423.645 734.39 423.932C734.523 424.219 734.646 424.51 734.759 424.806C734.872 425.101 734.975 425.4 735.067 425.703C735.159 426.006 735.24 426.311 735.311 426.619C735.382 426.928 735.442 427.238 735.491 427.551C735.54 427.863 735.578 428.177 735.605 428.492C735.632 428.808 735.648 429.123 735.653 429.44C735.658 429.756 735.652 430.072 735.635 430.388C735.618 430.704 735.59 431.019 735.551 431.333C735.512 431.647 735.461 431.959 735.401 432.269C735.34 432.58 735.268 432.888 735.186 433.193C735.103 433.499 735.01 433.801 734.907 434.1L754.562 453.755C759.316 452.115 764.802 453.173 768.598 456.98C768.755 457.137 768.909 457.298 769.058 457.463C769.208 457.628 769.353 457.796 769.494 457.968C769.636 458.14 769.773 458.315 769.905 458.494C770.037 458.673 770.166 458.855 770.29 459.04C770.413 459.224 770.532 459.412 770.647 459.603C770.761 459.794 770.871 459.987 770.975 460.184C771.08 460.38 771.181 460.578 771.276 460.779C771.371 460.981 771.461 461.184 771.546 461.39C771.631 461.595 771.712 461.803 771.786 462.012C771.862 462.221 771.931 462.433 771.996 462.645C772.061 462.858 772.12 463.073 772.174 463.289C772.228 463.504 772.277 463.722 772.32 463.94C772.364 464.158 772.402 464.377 772.434 464.597C772.467 464.817 772.495 465.038 772.517 465.259C772.538 465.481 772.554 465.703 772.566 465.925C772.576 466.147 772.582 466.369 772.582 466.592C772.582 466.814 772.576 467.037 772.566 467.259C772.555 467.481 772.538 467.703 772.517 467.924C772.495 468.146 772.467 468.367 772.435 468.587C772.402 468.807 772.364 469.026 772.321 469.244C772.278 469.463 772.229 469.679 772.175 469.895C772.121 470.111 772.061 470.325 771.997 470.538C771.932 470.751 771.863 470.962 771.787 471.172C771.712 471.382 771.632 471.589 771.547 471.795C771.462 472 771.372 472.203 771.277 472.404C771.182 472.605 771.082 472.804 770.977 473C770.872 473.197 770.762 473.39 770.648 473.581C770.533 473.772 770.414 473.96 770.291 474.145C770.167 474.33 770.039 474.512 769.907 474.69C769.774 474.869 769.637 475.044 769.496 475.216C769.355 475.388 769.21 475.557 769.06 475.721C768.911 475.886 768.757 476.047 768.6 476.205C768.442 476.362 768.282 476.515 768.116 476.665C767.952 476.814 767.783 476.959 767.611 477.1C767.439 477.242 767.264 477.379 767.085 477.511C766.906 477.643 766.724 477.772 766.539 477.895C766.354 478.018 766.167 478.138 765.976 478.252C765.785 478.366 765.591 478.476 765.395 478.581C765.199 478.686 765 478.786 764.799 478.88C764.598 478.976 764.394 479.066 764.189 479.151C763.983 479.236 763.776 479.316 763.566 479.391C763.357 479.466 763.145 479.535 762.933 479.6C762.72 479.664 762.505 479.724 762.289 479.778C762.074 479.832 761.857 479.88 761.638 479.924C761.42 479.967 761.201 480.005 760.981 480.038C760.76 480.07 760.54 480.097 760.318 480.119C760.097 480.141 759.875 480.157 759.653 480.168C759.431 480.178 759.208 480.184 758.986 480.184C758.763 480.184 758.541 480.178 758.319 480.167C758.097 480.156 757.875 480.14 757.654 480.118C757.432 480.096 757.212 480.069 756.991 480.036C756.771 480.003 756.552 479.965 756.334 479.921C756.115 479.878 755.899 479.829 755.683 479.775C755.467 479.721 755.253 479.662 755.04 479.597C754.827 479.532 754.616 479.462 754.406 479.387C754.197 479.312 753.99 479.232 753.784 479.147C753.578 479.062 753.375 478.971 753.174 478.876C752.973 478.781 752.774 478.681 752.578 478.576C752.382 478.471 752.189 478.361 751.998 478.246C751.807 478.132 751.619 478.013 751.434 477.889C751.249 477.765 751.067 477.637 750.889 477.504C750.71 477.372 750.535 477.235 750.363 477.094C750.191 476.953 750.023 476.807 749.858 476.658C749.693 476.508 749.532 476.355 749.375 476.197C745.385 472.208 744.399 466.334 746.416 461.418L728.085 443.087V491.325C729.425 491.988 730.625 492.845 731.687 493.896C731.845 494.054 731.998 494.215 732.147 494.379C732.296 494.544 732.442 494.712 732.582 494.884C732.724 495.056 732.86 495.231 732.993 495.41C733.126 495.589 733.253 495.771 733.377 495.956C733.501 496.14 733.62 496.328 733.734 496.519C733.848 496.71 733.958 496.903 734.063 497.099C734.167 497.296 734.267 497.494 734.363 497.695C734.457 497.896 734.548 498.099 734.633 498.305C734.718 498.51 734.798 498.718 734.873 498.927C734.947 499.136 735.017 499.348 735.082 499.561C735.147 499.773 735.206 499.988 735.26 500.203C735.314 500.419 735.362 500.636 735.406 500.854C735.449 501.072 735.487 501.291 735.52 501.511C735.553 501.731 735.58 501.952 735.602 502.173C735.623 502.394 735.64 502.616 735.651 502.838C735.662 503.06 735.667 503.282 735.667 503.505C735.667 503.728 735.662 503.95 735.651 504.172C735.64 504.394 735.623 504.616 735.602 504.837C735.58 505.058 735.553 505.279 735.52 505.499C735.487 505.719 735.449 505.938 735.406 506.156C735.362 506.374 735.314 506.591 735.26 506.807C735.206 507.022 735.147 507.237 735.082 507.449C735.017 507.662 734.947 507.874 734.873 508.083C734.798 508.292 734.718 508.5 734.633 508.705C734.548 508.911 734.457 509.114 734.363 509.315C734.267 509.516 734.167 509.714 734.063 509.911C733.958 510.107 733.848 510.3 733.734 510.491C733.62 510.682 733.501 510.87 733.377 511.054C733.253 511.239 733.126 511.421 732.993 511.6C732.86 511.779 732.724 511.954 732.582 512.126C732.442 512.298 732.296 512.466 732.147 512.631C731.998 512.795 731.845 512.956 731.687 513.114C731.53 513.271 731.369 513.424 731.204 513.574C731.039 513.723 730.871 513.868 730.699 514.009C730.527 514.15 730.352 514.287 730.173 514.42C729.994 514.552 729.813 514.68 729.628 514.803C729.443 514.927 729.255 515.046 729.065 515.16C728.874 515.275 728.68 515.384 728.484 515.489C728.288 515.594 728.09 515.694 727.888 515.789C727.687 515.884 727.484 515.974 727.279 516.059C727.073 516.144 726.866 516.224 726.656 516.299C726.447 516.375 726.236 516.444 726.023 516.509C725.81 516.573 725.596 516.633 725.38 516.686C725.164 516.74 724.948 516.789 724.73 516.833C724.511 516.876 724.292 516.914 724.072 516.947C723.852 516.979 723.632 517.007 723.411 517.028C723.189 517.05 722.967 517.066 722.745 517.078C722.523 517.088 722.301 517.094 722.078 517.094C721.856 517.094 721.634 517.088 721.411 517.078C721.189 517.066 720.968 517.05 720.746 517.028C720.525 517.007 720.305 516.979 720.085 516.947C719.864 516.914 719.645 516.876 719.427 516.833C719.209 516.789 718.992 516.74 718.777 516.686C718.561 516.633 718.347 516.573 718.134 516.509C717.921 516.444 717.71 516.374 717.5 516.299C717.291 516.224 717.084 516.144 716.878 516.059C716.673 515.974 716.47 515.884 716.268 515.789C716.067 515.694 715.869 515.594 715.673 515.489C715.476 515.384 715.283 515.275 715.092 515.16C714.902 515.046 714.714 514.927 714.529 514.803C714.344 514.68 714.162 514.552 713.984 514.42C713.805 514.287 713.63 514.15 713.458 514.009C713.286 513.868 713.117 513.723 712.953 513.574C712.788 513.424 712.627 513.271 712.47 513.114C712.312 512.957 712.159 512.795 712.009 512.631C711.86 512.466 711.714 512.298 711.573 512.126C711.432 511.955 711.295 511.779 711.162 511.6C711.03 511.422 710.901 511.24 710.778 511.055C710.654 510.871 710.535 510.683 710.42 510.492C710.306 510.301 710.196 510.108 710.091 509.912C709.986 509.716 709.886 509.517 709.791 509.316C709.696 509.115 709.605 508.912 709.52 508.706C709.435 508.501 709.355 508.293 709.28 508.084C709.205 507.875 709.135 507.663 709.07 507.45C709.006 507.238 708.946 507.023 708.892 506.808C708.838 506.592 708.79 506.375 708.746 506.157C708.703 505.939 708.664 505.719 708.632 505.499C708.599 505.279 708.572 505.059 708.55 504.837C708.528 504.616 708.512 504.394 708.501 504.172C708.49 503.95 708.484 503.728 708.484 503.505C708.484 503.282 708.49 503.06 708.501 502.838C708.512 502.616 708.528 502.394 708.55 502.173C708.572 501.951 708.599 501.731 708.632 501.511C708.664 501.291 708.703 501.071 708.746 500.853C708.79 500.635 708.838 500.418 708.892 500.202C708.946 499.987 709.006 499.772 709.07 499.56C709.135 499.347 709.205 499.135 709.28 498.926C709.355 498.717 709.435 498.509 709.52 498.304C709.605 498.098 709.696 497.895 709.791 497.694C709.886 497.493 709.986 497.295 710.091 497.098C710.196 496.902 710.306 496.709 710.42 496.518C710.535 496.327 710.654 496.139 710.778 495.955C710.901 495.77 711.03 495.588 711.162 495.41C711.295 495.231 711.432 495.055 711.573 494.884C711.714 494.712 711.86 494.544 712.009 494.379C712.159 494.215 712.312 494.053 712.47 493.896C713.783 492.588 715.24 491.597 716.919 490.932V442.246C715.301 441.58 713.783 440.6 712.47 439.281C712.233 439.044 712.005 438.799 711.786 438.546C711.568 438.292 711.359 438.031 711.159 437.762C710.96 437.493 710.77 437.217 710.591 436.934C710.412 436.652 710.244 436.363 710.086 436.067C709.929 435.772 709.782 435.471 709.647 435.165C709.511 434.859 709.388 434.548 709.275 434.232C709.163 433.917 709.062 433.598 708.974 433.275C708.885 432.953 708.808 432.627 708.743 432.298C708.679 431.97 708.626 431.639 708.586 431.307C708.546 430.975 708.517 430.642 708.502 430.307C708.486 429.973 708.483 429.638 708.493 429.304C708.501 428.969 708.523 428.635 708.557 428.302C708.591 427.969 708.637 427.637 708.695 427.308C708.754 426.978 708.824 426.651 708.907 426.326C708.989 426.002 709.084 425.681 709.19 425.364C709.296 425.046 709.414 424.733 709.544 424.424L689.429 404.32L636.342 457.351C636.21 457.483 636.082 457.619 635.956 457.757C635.83 457.896 635.708 458.037 635.589 458.181C635.47 458.326 635.356 458.473 635.244 458.623C635.133 458.773 635.025 458.926 634.921 459.081C634.817 459.237 634.717 459.395 634.621 459.555C634.525 459.715 634.433 459.878 634.344 460.043C634.256 460.208 634.172 460.375 634.092 460.544C634.012 460.712 633.936 460.883 633.865 461.056C633.793 461.229 633.726 461.403 633.663 461.579C633.599 461.755 633.541 461.933 633.487 462.112C633.432 462.29 633.382 462.471 633.337 462.652C633.291 462.833 633.251 463.016 633.214 463.199C633.178 463.382 633.146 463.567 633.118 463.752C633.091 463.936 633.068 464.122 633.05 464.308C633.031 464.494 633.017 464.681 633.008 464.867C632.999 465.054 632.995 465.241 632.995 465.428C632.995 465.615 632.999 465.801 633.008 465.988C633.017 466.175 633.031 466.362 633.05 466.547C633.068 466.733 633.091 466.919 633.118 467.104C633.146 467.289 633.178 467.473 633.214 467.656C633.251 467.839 633.291 468.022 633.337 468.203C633.382 468.385 633.432 468.565 633.487 468.744C633.541 468.923 633.599 469.1 633.663 469.276C633.726 469.452 633.793 469.626 633.865 469.799C633.936 469.972 634.012 470.143 634.092 470.312C634.172 470.481 634.256 470.648 634.344 470.812C634.433 470.977 634.525 471.14 634.621 471.3C634.717 471.46 634.817 471.618 634.921 471.774C635.025 471.929 635.133 472.082 635.244 472.232C635.356 472.382 635.47 472.53 635.589 472.674C635.708 472.818 635.83 472.96 635.956 473.099C636.082 473.237 636.21 473.372 636.342 473.504L713.766 550.917C713.899 551.049 714.034 551.178 714.172 551.303C714.311 551.429 714.452 551.551 714.597 551.669C714.741 551.788 714.888 551.903 715.038 552.014C715.188 552.126 715.341 552.233 715.496 552.337C715.652 552.441 715.81 552.541 715.97 552.637C716.13 552.733 716.293 552.825 716.457 552.914C716.622 553.002 716.789 553.086 716.958 553.165C717.127 553.245 717.298 553.321 717.47 553.393C717.643 553.464 717.817 553.532 717.993 553.594C718.169 553.657 718.347 553.716 718.526 553.77C718.704 553.825 718.884 553.875 719.066 553.92C719.247 553.965 719.429 554.006 719.612 554.043C719.795 554.079 719.98 554.111 720.165 554.138C720.349 554.166 720.535 554.189 720.721 554.207C720.907 554.225 721.093 554.239 721.28 554.248C721.466 554.257 721.653 554.262 721.84 554.262C722.027 554.262 722.214 554.257 722.401 554.248C722.587 554.239 722.773 554.225 722.959 554.207C723.145 554.189 723.331 554.166 723.515 554.138C723.701 554.111 723.885 554.079 724.068 554.043C724.251 554.006 724.433 553.965 724.614 553.92C724.796 553.875 724.976 553.825 725.155 553.77C725.333 553.716 725.511 553.657 725.687 553.594C725.863 553.532 726.037 553.464 726.21 553.393C726.382 553.321 726.553 553.245 726.722 553.165C726.891 553.086 727.058 553.002 727.223 552.914C727.388 552.825 727.55 552.733 727.71 552.637C727.87 552.541 728.028 552.441 728.184 552.337C728.339 552.233 728.492 552.126 728.642 552.014C728.792 551.903 728.939 551.788 729.084 551.669C729.228 551.551 729.37 551.429 729.508 551.303C729.647 551.178 729.782 551.049 729.914 550.917L806.977 473.975C807.109 473.843 807.239 473.708 807.364 473.569C807.49 473.431 807.612 473.289 807.731 473.145C807.849 473 807.964 472.853 808.076 472.703C808.187 472.553 808.295 472.4 808.399 472.245C808.503 472.089 808.603 471.932 808.699 471.771C808.795 471.611 808.888 471.448 808.975 471.283C809.064 471.119 809.148 470.952 809.228 470.783C809.308 470.614 809.384 470.443 809.455 470.27C809.527 470.098 809.594 469.923 809.657 469.747C809.72 469.571 809.779 469.394 809.833 469.215C809.888 469.036 809.937 468.856 809.983 468.675C810.028 468.493 810.07 468.311 810.106 468.128C810.142 467.944 810.174 467.76 810.202 467.575C810.229 467.39 810.252 467.204 810.271 467.018C810.289 466.832 810.303 466.646 810.312 466.459C810.321 466.273 810.326 466.086 810.326 465.899C810.326 465.712 810.321 465.525 810.312 465.338C810.303 465.151 810.289 464.965 810.271 464.779C810.252 464.593 810.229 464.408 810.202 464.222C810.174 464.037 810.142 463.853 810.106 463.67C810.07 463.486 810.028 463.304 809.983 463.123C809.937 462.942 809.888 462.762 809.833 462.583C809.779 462.404 809.72 462.226 809.657 462.05C809.594 461.874 809.527 461.7 809.455 461.527C809.384 461.355 809.308 461.184 809.228 461.015C809.148 460.845 809.064 460.679 808.975 460.514C808.888 460.349 808.795 460.186 808.699 460.026C808.603 459.866 808.503 459.708 808.399 459.553C808.295 459.397 808.187 459.244 808.076 459.094C807.964 458.944 807.849 458.797 807.731 458.652C807.612 458.508 807.49 458.366 807.364 458.228C807.239 458.089 807.109 457.954 806.977 457.822" fill="#F03C2E"/>
</g>
<path d="M545.014 136.724L562.139 119.599L563.28 112.389C532.075 84.0138 482.47 87.2312 454.34 119.102C446.526 127.954 440.729 138.99 437.638 150.386L443.771 149.522L478.019 143.874L480.663 141.17C495.897 124.439 521.656 122.188 539.246 136.424L545.014 136.724Z" fill="#EA4335"/>
<path d="M586.533 149.882C582.597 135.387 574.516 122.357 563.28 112.389L539.246 136.423C549.394 144.716 555.176 157.208 554.928 170.311V174.577C566.741 174.577 576.319 184.154 576.319 195.967C576.319 207.781 566.741 217.118 554.928 217.118H512.088L507.881 221.684V247.34L512.088 251.366H554.928C585.656 251.605 610.759 227.13 610.999 196.403C611.143 177.778 601.96 160.317 586.533 149.882Z" fill="#4285F4"/>
<path d="M469.306 251.366H512.087V217.117H469.306C466.258 217.117 463.306 216.462 460.535 215.195L454.465 217.057L437.221 234.182L435.719 240.01C445.389 247.312 457.189 251.418 469.306 251.366Z" fill="#34A853"/>
<path d="M469.306 140.269C438.578 140.452 413.818 165.511 414.001 196.238C414.103 213.397 422.117 229.55 435.719 240.01L460.535 215.195C449.768 210.331 444.984 197.66 449.848 186.895C454.712 176.129 467.383 171.345 478.148 176.208C482.892 178.351 486.691 182.151 488.834 186.895L513.65 162.08C503.091 148.277 486.685 140.206 469.306 140.269Z" fill="#FBBC05"/>
<mask id="mask6_82_23" style="mask-type:luminance" maskUnits="userSpaceOnUse" x="634" y="141" width="177" height="175">
<path d="M634 141H810.763V315.121H634V141Z" fill="white"/>
</mask>
<g mask="url(#mask6_82_23)">
<path d="M722.382 141.031C673.573 141.031 634 180.604 634 229.413C634 270.827 662.518 305.48 700.964 315.069C700.552 313.876 700.286 312.492 700.286 310.776V295.669C696.699 295.669 690.69 295.669 689.18 295.669C683.133 295.669 677.757 293.07 675.149 288.238C672.255 282.869 671.754 274.657 664.58 269.634C662.452 267.962 664.072 266.054 666.525 266.312C671.054 267.594 674.81 270.702 678.345 275.312C681.866 279.931 683.523 280.976 690.1 280.976C693.289 280.976 698.062 280.792 702.555 280.085C704.971 273.95 709.147 268.301 714.25 265.635C684.819 262.607 670.774 247.966 670.774 228.087C670.774 219.529 674.42 211.251 680.614 204.276C678.581 197.352 676.026 183.233 681.395 177.857C694.637 177.857 702.643 186.445 704.565 188.765C711.164 186.503 718.412 185.222 726.027 185.222C733.658 185.222 740.935 186.503 747.549 188.779C749.449 186.474 757.462 177.857 770.734 177.857C776.125 183.241 773.54 197.419 771.485 204.327C777.643 211.287 781.266 219.544 781.266 228.087C781.266 247.951 767.243 262.586 737.856 265.627C745.943 269.847 751.842 281.705 751.842 290.639V310.776C751.842 311.541 751.673 312.094 751.584 312.749C786.024 300.678 810.763 267.977 810.763 229.413C810.763 180.604 771.19 141.031 722.382 141.031Z" fill="black"/>
</g>
<mask id="mask7_82_23" style="mask-type:luminance" maskUnits="userSpaceOnUse" x="67" y="130" width="125" height="142">
<path d="M67 130.548H191.6V271.831H67V130.548Z" fill="white"/>
</mask>
<g mask="url(#mask7_82_23)">
<path d="M129.235 271.823L78.3896 257.702L67.0596 130.553L191.562 130.552L180.224 257.681L129.237 271.821L129.235 271.823Z" fill="#0277BD"/>
</g>
<path d="M170.515 249.588L180.208 140.95L129.313 140.949V261.012L170.515 249.587V249.588Z" fill="#039BE5"/>
<path d="M93.0361 188.107L94.4329 203.698H129.313V188.107H93.0361Z" fill="#EBEBEB"/>
<path d="M90.2285 156.541L91.6452 172.137H129.313V156.541H90.2285Z" fill="#EBEBEB"/>
<path d="M129.313 228.605L129.245 228.625L111.886 223.933L110.776 211.496H95.1289L97.3127 235.983L129.24 244.851L129.313 244.831V228.605Z" fill="#EBEBEB"/>
<mask id="mask8_82_23" style="mask-type:luminance" maskUnits="userSpaceOnUse" x="96" y="96" width="20" height="24">
<path d="M96.3525 96H115.257V119.727H96.3525V96Z" fill="white"/>
</mask>
<g mask="url(#mask8_82_23)">
<path d="M96.3623 96H115.241V103.899H104.257V111.797H115.241V119.695H96.3623V96Z" fill="black"/>
</g>
<mask id="mask9_82_23" style="mask-type:luminance" maskUnits="userSpaceOnUse" x="118" y="96" width="21" height="25">
<path d="M118.986 96H138.015V120.1H118.986V96Z" fill="white"/>
</mask>
<g mask="url(#mask9_82_23)">
<path d="M119.016 96.0002H137.894V102.869H126.913V104.242H137.894V120.039H119.016V112.828H130.002V111.453H119.016V96.0002Z" fill="black"/>
</g>
<mask id="mask10_82_23" style="mask-type:luminance" maskUnits="userSpaceOnUse" x="141" y="96" width="20" height="25">
<path d="M141.623 96H160.652V120.1H141.623V96Z" fill="white"/>
</mask>
<g mask="url(#mask10_82_23)">
<path d="M141.671 96.0002H160.55V102.869H149.563V104.242H160.55V120.039H141.671V112.828H152.653V111.453H141.671V96.0002Z" fill="black"/>
</g>
<path d="M165.493 188.109L168.304 156.541H129.26V172.137H151.223L149.807 188.109H129.26V203.699H148.455L146.645 223.924L129.26 228.621V244.842L161.213 235.985L161.447 233.348L165.112 192.293L165.493 188.109Z" fill="white"/>
<mask id="mask11_82_23" style="mask-type:luminance" maskUnits="userSpaceOnUse" x="569" y="526" width="30" height="33">
<path d="M569.263 526.157H598.123V558.743H569.263V526.157Z" fill="white"/>
</mask>
<g mask="url(#mask11_82_23)">
<path d="M583.71 526.16C583.272 526.16 582.845 526.25 582.468 526.464L570.525 533.364C569.753 533.809 569.283 534.651 569.283 535.546V549.321C569.283 550.215 569.753 551.056 570.525 551.502L573.644 553.3C575.16 554.048 575.718 554.036 576.408 554.036C578.651 554.036 579.932 552.674 579.932 550.307V536.716C579.932 536.524 579.766 536.386 579.577 536.386H578.082C577.89 536.386 577.726 536.527 577.726 536.716V550.313C577.726 551.362 576.634 552.418 574.861 551.53L571.62 549.628C571.505 549.566 571.416 549.452 571.416 549.324V535.549C571.416 535.418 571.504 535.285 571.62 535.219L583.536 528.344C583.648 528.28 583.781 528.28 583.892 528.344L595.808 535.219C595.922 535.287 596.011 535.414 596.011 535.549V549.324C596.011 549.455 595.946 549.59 595.834 549.654L583.892 556.529C583.786 556.59 583.645 556.59 583.537 556.529L580.469 554.702C580.377 554.649 580.253 554.653 580.165 554.702C579.318 555.182 579.159 555.238 578.365 555.514C578.169 555.582 577.871 555.688 578.466 556.022L582.472 558.384C582.854 558.605 583.278 558.713 583.715 558.713C584.157 558.713 584.576 558.608 584.957 558.384L596.9 551.509C597.673 551.059 598.142 550.222 598.142 549.327V535.552C598.142 534.657 597.673 533.818 596.9 533.37L584.957 526.47C584.583 526.257 584.154 526.166 583.715 526.166L583.71 526.16ZM586.905 536.003C583.504 536.003 581.479 537.451 581.479 539.859C581.479 542.468 583.489 543.189 586.753 543.511C590.658 543.894 590.962 544.468 590.962 545.237C590.962 546.571 589.9 547.139 587.387 547.139C584.231 547.139 583.537 546.351 583.305 544.777C583.277 544.608 583.148 544.473 582.976 544.473H581.425C581.378 544.474 581.334 544.484 581.29 544.502C581.248 544.52 581.209 544.546 581.176 544.579C581.143 544.612 581.117 544.65 581.1 544.693C581.081 544.736 581.071 544.781 581.07 544.828C581.07 546.838 582.163 549.216 587.384 549.216C591.162 549.216 593.342 547.736 593.342 545.132C593.342 542.558 591.582 541.862 587.916 541.377C584.216 540.884 583.859 540.647 583.859 539.779C583.859 539.062 584.159 538.104 586.902 538.104C589.352 538.104 590.258 538.633 590.629 540.286C590.662 540.441 590.799 540.568 590.959 540.568H592.51C592.604 540.568 592.697 540.509 592.763 540.441C592.828 540.368 592.874 540.286 592.865 540.187C592.625 537.34 590.728 536.001 586.906 536.001L586.905 536.003Z" fill="#83CD29"/>
</g>
<mask id="mask12_82_23" style="mask-type:luminance" maskUnits="userSpaceOnUse" x="418" y="508" width="142" height="51">
<path d="M418 508H559.934V558.992H418V508Z" fill="white"/>
</mask>
<g mask="url(#mask12_82_23)">
<path d="M513.5 508.102C513.364 508.103 513.237 508.136 513.119 508.204C513.062 508.238 513.009 508.278 512.962 508.325C512.915 508.373 512.875 508.425 512.842 508.483C512.808 508.541 512.783 508.602 512.766 508.667C512.749 508.731 512.739 508.797 512.739 508.864V528.27C512.739 528.46 512.65 528.631 512.485 528.727C512.403 528.775 512.314 528.798 512.219 528.798C512.124 528.798 512.035 528.775 511.953 528.727L508.783 526.9C508.668 526.833 508.546 526.783 508.416 526.748C508.288 526.713 508.157 526.696 508.023 526.696C507.889 526.696 507.758 526.713 507.629 526.748C507.5 526.783 507.378 526.833 507.262 526.9L494.611 534.206C494.138 534.479 493.85 535.004 493.85 535.551V550.162C493.849 550.296 493.867 550.428 493.901 550.557C493.936 550.685 493.986 550.808 494.053 550.924C494.12 551.04 494.201 551.145 494.295 551.239C494.39 551.334 494.495 551.415 494.611 551.481L507.263 558.787C507.378 558.855 507.501 558.905 507.63 558.94C507.759 558.975 507.89 558.992 508.023 558.992C508.157 558.992 508.288 558.975 508.417 558.94C508.546 558.905 508.669 558.855 508.784 558.787L521.437 551.481C521.552 551.415 521.657 551.334 521.752 551.239C521.847 551.145 521.927 551.04 521.994 550.924C522.061 550.808 522.111 550.685 522.146 550.557C522.18 550.428 522.197 550.296 522.197 550.162V513.734C522.197 513.18 521.895 512.66 521.411 512.39L513.881 508.177C513.762 508.111 513.631 508.099 513.5 508.1L513.5 508.102ZM432.109 526.342C431.868 526.352 431.641 526.394 431.424 526.519L418.773 533.825C418.656 533.892 418.551 533.973 418.457 534.067C418.362 534.162 418.281 534.266 418.215 534.382C418.148 534.498 418.097 534.621 418.063 534.75C418.029 534.879 418.012 535.011 418.012 535.144L418.038 554.754C418.038 555.027 418.179 555.28 418.418 555.414C418.654 555.554 418.945 555.554 419.179 555.414L426.684 551.101C427.16 550.819 427.47 550.326 427.47 549.782V540.624C427.47 540.077 427.757 539.576 428.231 539.304L431.426 537.453C431.661 537.316 431.914 537.248 432.186 537.25C432.458 537.248 432.712 537.316 432.947 537.453L436.14 539.304C436.614 539.575 436.901 540.076 436.901 540.622V549.78C436.901 550.325 437.218 550.82 437.687 551.099L445.192 555.412C445.428 555.553 445.719 555.553 445.953 555.412C446.185 555.278 446.333 555.024 446.333 554.752L446.358 535.143C446.359 535.009 446.342 534.878 446.308 534.748C446.274 534.619 446.224 534.496 446.157 534.38C446.09 534.265 446.009 534.159 445.914 534.065C445.82 533.971 445.714 533.89 445.598 533.824L432.946 526.52C432.732 526.395 432.504 526.353 432.262 526.343H432.11L432.109 526.342ZM545.801 526.519C545.529 526.519 545.275 526.586 545.04 526.723L532.388 534.029C531.915 534.302 531.626 534.801 531.626 535.347V549.959C531.626 550.509 531.936 551.006 532.412 551.278L544.963 558.435C545.426 558.7 545.992 558.72 546.459 558.46L554.066 554.223C554.307 554.089 554.47 553.839 554.471 553.564C554.471 553.289 554.329 553.041 554.09 552.905L541.361 545.598C541.123 545.462 540.956 545.187 540.956 544.913V540.344C540.956 540.071 541.125 539.821 541.361 539.685L545.317 537.402C545.552 537.265 545.841 537.265 546.078 537.402L550.043 539.685C550.1 539.718 550.153 539.758 550.201 539.805C550.248 539.853 550.288 539.905 550.322 539.963C550.355 540.021 550.38 540.082 550.397 540.147C550.414 540.212 550.423 540.277 550.423 540.344V543.946C550.423 544.013 550.431 544.079 550.448 544.143C550.466 544.208 550.491 544.269 550.524 544.327C550.558 544.385 550.598 544.438 550.645 544.485C550.693 544.532 550.745 544.572 550.803 544.606C551.04 544.742 551.328 544.743 551.564 544.606L559.145 540.192C559.615 539.918 559.905 539.417 559.905 538.873V535.347C559.905 535.213 559.888 535.082 559.854 534.953C559.819 534.824 559.768 534.701 559.702 534.586C559.635 534.47 559.554 534.365 559.46 534.27C559.366 534.176 559.26 534.095 559.145 534.028L546.569 526.722C546.333 526.586 546.08 526.518 545.808 526.519L545.801 526.519ZM507.97 537.428C508.042 537.428 508.11 537.445 508.174 537.479L512.509 539.99C512.627 540.058 512.712 540.184 512.712 540.32V545.342C512.712 545.479 512.628 545.605 512.509 545.672L508.174 548.183C508.055 548.251 507.911 548.251 507.793 548.183L503.457 545.672C503.339 545.604 503.254 545.478 503.254 545.342V540.321C503.254 540.185 503.34 540.06 503.457 539.991L507.793 537.48C507.852 537.446 507.904 537.43 507.97 537.43V537.428Z" fill="#404137"/>
</g>
<path d="M470.118 526.444C469.846 526.444 469.592 526.511 469.357 526.647L456.704 533.928C456.231 534.201 455.944 534.727 455.944 535.272V549.884C455.943 550.018 455.96 550.149 455.995 550.278C456.029 550.408 456.08 550.53 456.146 550.646C456.213 550.762 456.294 550.867 456.388 550.961C456.483 551.056 456.589 551.136 456.704 551.202L469.357 558.509C469.472 558.576 469.594 558.627 469.723 558.661C469.852 558.696 469.984 558.714 470.117 558.714C470.251 558.714 470.382 558.696 470.511 558.661C470.64 558.627 470.762 558.576 470.878 558.509L483.53 551.202C483.646 551.136 483.751 551.055 483.845 550.961C483.94 550.866 484.021 550.761 484.087 550.645C484.154 550.53 484.205 550.407 484.239 550.278C484.274 550.149 484.291 550.018 484.291 549.884V535.273C484.291 534.727 484.003 534.201 483.53 533.928L470.877 526.648C470.642 526.511 470.388 526.444 470.116 526.445L470.118 526.444ZM545.778 539.483C545.728 539.483 545.672 539.483 545.626 539.508L543.192 540.929C543.146 540.954 543.109 540.99 543.082 541.036C543.055 541.081 543.041 541.13 543.04 541.182V543.973C543.04 544.078 543.101 544.174 543.192 544.227L545.626 545.622C545.668 545.648 545.715 545.662 545.765 545.662C545.815 545.662 545.862 545.648 545.905 545.622L548.339 544.227C548.428 544.175 548.491 544.078 548.491 543.973V541.182C548.491 541.077 548.429 540.982 548.339 540.929L545.905 539.508C545.859 539.481 545.828 539.483 545.778 539.483L545.778 539.483Z" fill="#83CD29"/>
<mask id="mask13_82_23" style="mask-type:luminance" maskUnits="userSpaceOnUse" x="418" y="285" width="176" height="176">
<path d="M418 285H593.178V460.178H418V285Z" fill="white"/>
</mask>
<g mask="url(#mask13_82_23)">
<path d="M418 285H593.178V460.178H418V285Z" fill="#FFD600"/>
</g>
<path d="M532.537 416.124C535.904 421.594 539.564 426.834 547.315 426.834C553.826 426.834 557.242 423.599 557.242 419.122C557.242 413.764 553.709 411.862 546.546 408.743L542.619 407.069C531.286 402.261 523.749 396.237 523.749 383.512C523.749 371.785 532.727 362.861 546.755 362.861C556.745 362.861 563.923 366.32 569.101 375.381L556.867 383.201C554.176 378.393 551.266 376.5 546.755 376.5C542.152 376.5 539.238 379.405 539.238 383.201C539.238 387.891 542.157 389.79 548.896 392.694L552.823 394.369C566.181 400.057 573.713 405.867 573.713 418.927C573.713 433 562.599 440.713 547.68 440.713C533.087 440.713 524.8 433.389 520.187 424.324L532.537 416.124ZM476.159 416.523C478.621 420.932 482.363 424.324 487.745 424.324C492.893 424.324 495.857 422.29 495.857 414.382V362.856H512.075V416.874C512.075 433.258 502.572 440.713 488.694 440.713C476.154 440.713 467.103 432.216 463.415 424.324L476.159 416.523Z" fill="#000001"/>
<path d="M141.123 388.802C141.123 389.058 141.117 389.314 141.104 389.569C141.091 389.824 141.073 390.08 141.048 390.334C141.023 390.589 140.991 390.843 140.954 391.095C140.916 391.349 140.873 391.601 140.823 391.851C140.773 392.103 140.717 392.352 140.655 392.6C140.592 392.848 140.524 393.095 140.45 393.339C140.376 393.584 140.296 393.827 140.21 394.068C140.123 394.309 140.031 394.547 139.934 394.783C139.835 395.02 139.732 395.254 139.623 395.485C139.513 395.716 139.398 395.944 139.278 396.17C139.157 396.396 139.031 396.618 138.9 396.837C138.768 397.057 138.632 397.273 138.489 397.485C138.347 397.698 138.2 397.907 138.048 398.113C137.896 398.318 137.738 398.52 137.576 398.718C137.414 398.915 137.247 399.109 137.075 399.299C136.903 399.488 136.727 399.673 136.546 399.854C136.365 400.035 136.18 400.211 135.991 400.383C135.801 400.555 135.607 400.722 135.41 400.884C135.212 401.047 135.011 401.204 134.805 401.356C134.6 401.509 134.391 401.656 134.178 401.798C133.966 401.94 133.75 402.077 133.53 402.208C133.311 402.34 133.088 402.466 132.863 402.586C132.637 402.707 132.409 402.822 132.178 402.931C131.947 403.041 131.713 403.144 131.477 403.242C131.24 403.34 131.002 403.432 130.761 403.518C130.52 403.604 130.277 403.685 130.033 403.759C129.788 403.833 129.542 403.901 129.294 403.964C129.045 404.026 128.796 404.082 128.545 404.132C128.294 404.182 128.042 404.225 127.789 404.263C127.537 404.3 127.283 404.332 127.028 404.357C126.774 404.382 126.519 404.401 126.263 404.413C126.008 404.426 125.752 404.432 125.497 404.432C125.241 404.432 124.985 404.426 124.73 404.413C124.475 404.401 124.22 404.382 123.965 404.357C123.71 404.332 123.457 404.3 123.204 404.263C122.951 404.225 122.699 404.182 122.448 404.132C122.198 404.082 121.948 404.026 121.7 403.964C121.452 403.901 121.205 403.833 120.961 403.759C120.716 403.685 120.473 403.604 120.232 403.518C119.991 403.432 119.753 403.34 119.517 403.242C119.281 403.144 119.047 403.041 118.816 402.931C118.584 402.822 118.356 402.707 118.131 402.586C117.905 402.466 117.683 402.34 117.463 402.208C117.244 402.077 117.028 401.94 116.815 401.798C116.603 401.656 116.393 401.509 116.188 401.356C115.983 401.204 115.781 401.047 115.583 400.884C115.386 400.722 115.192 400.555 115.003 400.383C114.813 400.211 114.628 400.035 114.447 399.854C114.266 399.673 114.09 399.488 113.919 399.299C113.747 399.109 113.58 398.915 113.418 398.718C113.255 398.52 113.098 398.318 112.945 398.113C112.793 397.907 112.646 397.698 112.504 397.485C112.362 397.273 112.225 397.057 112.094 396.837C111.962 396.618 111.836 396.396 111.716 396.17C111.595 395.944 111.48 395.716 111.371 395.485C111.262 395.254 111.158 395.02 111.06 394.783C110.962 394.547 110.87 394.309 110.784 394.068C110.697 393.827 110.617 393.584 110.543 393.339C110.469 393.095 110.401 392.848 110.339 392.6C110.277 392.352 110.22 392.103 110.171 391.851C110.121 391.601 110.077 391.349 110.04 391.095C110.002 390.843 109.971 390.589 109.946 390.334C109.921 390.08 109.902 389.824 109.889 389.569C109.877 389.314 109.871 389.058 109.871 388.802C109.871 388.546 109.877 388.291 109.889 388.035C109.902 387.78 109.921 387.525 109.946 387.27C109.971 387.016 110.002 386.762 110.04 386.509C110.077 386.256 110.121 386.004 110.171 385.753C110.22 385.502 110.277 385.253 110.339 385.005C110.401 384.756 110.469 384.51 110.543 384.265C110.617 384.02 110.697 383.777 110.784 383.537C110.87 383.296 110.962 383.057 111.06 382.821C111.158 382.585 111.262 382.351 111.371 382.12C111.48 381.888 111.595 381.66 111.716 381.434C111.836 381.209 111.962 380.986 112.094 380.767C112.225 380.548 112.362 380.331 112.504 380.119C112.646 379.906 112.793 379.697 112.945 379.491C113.098 379.286 113.255 379.085 113.418 378.887C113.58 378.689 113.747 378.495 113.919 378.306C114.09 378.117 114.266 377.931 114.447 377.75C114.628 377.569 114.813 377.393 115.003 377.222C115.192 377.05 115.386 376.883 115.583 376.72C115.781 376.558 115.983 376.401 116.188 376.249C116.393 376.096 116.603 375.949 116.815 375.806C117.028 375.665 117.244 375.528 117.463 375.396C117.683 375.265 117.905 375.139 118.131 375.018C118.356 374.897 118.584 374.782 118.816 374.673C119.047 374.564 119.281 374.46 119.517 374.362C119.753 374.264 119.991 374.173 120.232 374.086C120.473 374 120.716 373.92 120.961 373.846C121.205 373.771 121.452 373.703 121.7 373.641C121.948 373.579 122.198 373.523 122.448 373.473C122.699 373.423 122.951 373.379 123.204 373.342C123.457 373.304 123.71 373.273 123.965 373.248C124.22 373.223 124.475 373.204 124.73 373.191C124.985 373.179 125.241 373.173 125.497 373.173C125.752 373.173 126.008 373.179 126.263 373.191C126.519 373.204 126.774 373.223 127.028 373.248C127.283 373.273 127.537 373.304 127.789 373.342C128.042 373.379 128.294 373.423 128.545 373.473C128.796 373.523 129.045 373.579 129.294 373.641C129.542 373.703 129.788 373.771 130.033 373.846C130.277 373.92 130.52 374 130.761 374.086C131.002 374.173 131.24 374.264 131.477 374.362C131.713 374.46 131.947 374.564 132.178 374.673C132.409 374.782 132.637 374.897 132.863 375.018C133.088 375.138 133.311 375.265 133.53 375.396C133.75 375.528 133.966 375.665 134.178 375.806C134.391 375.949 134.6 376.096 134.805 376.249C135.011 376.401 135.212 376.558 135.41 376.72C135.607 376.883 135.801 377.05 135.991 377.221C136.18 377.393 136.365 377.569 136.546 377.75C136.727 377.931 136.903 378.117 137.075 378.306C137.247 378.495 137.414 378.689 137.576 378.887C137.738 379.085 137.896 379.286 138.048 379.491C138.2 379.697 138.347 379.906 138.489 380.119C138.632 380.331 138.768 380.548 138.9 380.767C139.031 380.986 139.157 381.209 139.278 381.434C139.398 381.66 139.513 381.888 139.623 382.12C139.732 382.351 139.835 382.585 139.934 382.821C140.031 383.057 140.123 383.296 140.21 383.537C140.296 383.777 140.376 384.02 140.45 384.265C140.524 384.51 140.592 384.756 140.655 385.005C140.717 385.253 140.773 385.502 140.823 385.753C140.873 386.004 140.916 386.256 140.954 386.509C140.991 386.762 141.023 387.016 141.048 387.27C141.073 387.525 141.091 387.78 141.104 388.035C141.117 388.291 141.123 388.546 141.123 388.802Z" fill="#00D8FF"/>
<mask id="mask14_82_23" style="mask-type:luminance" maskUnits="userSpaceOnUse" x="38" y="314" width="175" height="150">
<path d="M38.0005 314.688H212.992V463.312H38.0005V314.688Z" fill="white"/>
</mask>
<g mask="url(#mask14_82_23)">
<path d="M125.497 357.022C146.478 357.022 165.968 360.034 180.664 365.094C198.371 371.191 209.256 380.432 209.256 388.801C209.256 397.521 197.719 407.339 178.705 413.64C164.331 418.404 145.414 420.891 125.497 420.891C105.079 420.891 85.7431 418.557 71.2057 413.588C52.8142 407.3 41.7363 397.355 41.7363 388.801C41.7363 380.5 52.1306 371.33 69.5878 365.242C84.3381 360.099 104.309 357.022 125.496 357.022H125.497Z" stroke="#00D8FF" stroke-width="7.47646"/>
</g>
<mask id="mask15_82_23" style="mask-type:luminance" maskUnits="userSpaceOnUse" x="38" y="307" width="175" height="164">
<path d="M38 307H212.991V470.891H38V307Z" fill="white"/>
</mask>
<g mask="url(#mask15_82_23)">
<path d="M97.8401 373C108.321 354.822 120.666 339.44 132.39 329.233C146.516 316.938 159.956 312.122 167.205 316.303C174.757 320.659 177.496 335.561 173.455 355.185C170.402 370.02 163.103 387.652 153.154 404.909C142.953 422.601 131.272 438.189 119.707 448.299C105.073 461.094 90.9253 465.724 83.5184 461.45C76.3291 457.307 73.5803 443.717 77.0287 425.55C79.9427 410.2 87.2554 391.36 97.8357 373.003L97.8401 373Z" stroke="#00D8FF" stroke-width="7.47646"/>
<path d="M97.8652 404.954C87.3557 386.796 80.198 368.415 77.2107 353.158C73.6151 334.776 76.1574 320.722 83.3982 316.529C90.9436 312.16 105.219 317.228 120.197 330.53C131.521 340.587 143.15 355.715 153.127 372.954C163.357 390.629 171.025 408.537 174.007 423.606C177.782 442.678 174.727 457.248 167.325 461.535C160.143 465.694 147.001 461.291 132.987 449.229C121.147 439.038 108.479 423.291 97.8642 404.951L97.8652 404.954Z" stroke="#00D8FF" stroke-width="7.47646"/>
</g>
<mask id="mask16_82_23" style="mask-type:luminance" maskUnits="userSpaceOnUse" x="215" y="139" width="176" height="176">
<path d="M215 139H390.551V314.551H215V139Z" fill="white"/>
</mask>
<g mask="url(#mask16_82_23)">
<path d="M390.551 290.169C390.551 303.638 379.638 314.551 366.169 314.551H239.382C225.918 314.551 215 303.638 215 290.169V163.382C215 149.914 225.918 139 239.382 139H366.169C379.638 139 390.551 149.914 390.551 163.382V290.169Z" fill="#673AB7"/>
</g>
<path d="M346.811 234.578C343.642 230.189 339.058 227.166 333.158 225.557C333.158 225.557 338.132 223.752 342.618 217.023C345.3 212.732 346.665 207.562 346.665 201.516C346.665 191.032 342.862 182.985 335.254 177.475C327.647 171.965 319.065 168.259 304.484 168.259H258.89V285.292H309.751C323.551 285.195 333.938 282.221 341.009 276.515C348.031 270.712 351.542 262.13 351.542 250.67C351.542 244.331 349.981 238.967 346.811 234.578ZM288.148 187.765C288.148 187.765 308.483 187.765 308.873 187.765C316.285 187.765 322.283 193.762 322.283 201.174C322.283 208.587 316.285 214.585 308.873 214.585C308.483 214.585 288.148 214.585 288.148 214.585V187.765ZM312.53 265.787H288.148V236.528H312.53C320.625 236.528 327.16 243.063 327.16 251.158C327.16 259.253 320.625 265.787 312.53 265.787Z" fill="white"/>
<mask id="mask17_82_23" style="mask-type:luminance" maskUnits="userSpaceOnUse" x="827" y="274" width="178" height="178">
<path d="M827 274H1004.98V451.976H827V274Z" fill="white"/>
</mask>
<g mask="url(#mask17_82_23)">
<path d="M1004.98 362.988C1004.98 364.445 1004.94 365.9 1004.87 367.355C1004.8 368.809 1004.69 370.261 1004.55 371.71C1004.4 373.16 1004.23 374.605 1004.01 376.045C1003.8 377.486 1003.55 378.92 1003.27 380.349C1002.98 381.777 1002.66 383.198 1002.31 384.61C1001.96 386.023 1001.57 387.426 1001.14 388.82C1000.72 390.213 1000.26 391.596 999.774 392.967C999.284 394.339 998.759 395.697 998.202 397.042C997.645 398.388 997.055 399.719 996.432 401.035C995.81 402.352 995.155 403.652 994.469 404.937C993.782 406.221 993.064 407.488 992.315 408.737C991.567 409.986 990.788 411.216 989.979 412.427C989.17 413.638 988.331 414.828 987.464 415.998C986.596 417.168 985.7 418.316 984.777 419.441C983.853 420.567 982.902 421.67 981.924 422.749C980.946 423.828 979.942 424.882 978.912 425.912C977.882 426.942 976.828 427.946 975.749 428.924C974.67 429.902 973.567 430.853 972.441 431.777C971.316 432.7 970.168 433.596 968.998 434.464C967.828 435.331 966.638 436.17 965.427 436.979C964.216 437.788 962.986 438.567 961.737 439.315C960.488 440.064 959.221 440.782 957.937 441.469C956.652 442.155 955.352 442.81 954.035 443.432C952.719 444.055 951.388 444.645 950.042 445.202C948.697 445.759 947.339 446.284 945.967 446.774C944.596 447.265 943.213 447.722 941.82 448.144C940.426 448.567 939.023 448.955 937.61 449.309C936.198 449.663 934.777 449.982 933.349 450.266C931.92 450.55 930.486 450.799 929.045 451.013C927.605 451.226 926.16 451.405 924.71 451.548C923.261 451.69 921.809 451.797 920.354 451.869C918.9 451.94 917.445 451.976 915.988 451.976C914.532 451.976 913.076 451.94 911.621 451.869C910.167 451.797 908.715 451.69 907.266 451.548C905.816 451.405 904.371 451.226 902.931 451.013C901.49 450.799 900.056 450.55 898.627 450.266C897.199 449.982 895.779 449.663 894.366 449.309C892.953 448.955 891.55 448.567 890.156 448.144C888.762 447.722 887.38 447.265 886.009 446.774C884.638 446.284 883.279 445.759 881.934 445.202C880.588 444.645 879.257 444.055 877.94 443.432C876.624 442.81 875.324 442.155 874.039 441.469C872.755 440.782 871.488 440.064 870.239 439.315C868.99 438.567 867.76 437.788 866.549 436.979C865.338 436.17 864.148 435.331 862.978 434.464C861.808 433.596 860.661 432.7 859.534 431.777C858.409 430.853 857.306 429.902 856.227 428.924C855.148 427.946 854.094 426.942 853.064 425.912C852.034 424.882 851.03 423.828 850.052 422.749C849.074 421.67 848.123 420.567 847.199 419.441C846.275 418.316 845.38 417.168 844.512 415.998C843.644 414.828 842.806 413.638 841.997 412.427C841.188 411.216 840.409 409.986 839.66 408.737C838.912 407.488 838.194 406.221 837.507 404.937C836.821 403.652 836.167 402.352 835.544 401.035C834.921 399.719 834.331 398.388 833.774 397.042C833.217 395.697 832.692 394.339 832.202 392.967C831.711 391.596 831.254 390.213 830.832 388.82C830.409 387.426 830.021 386.023 829.667 384.61C829.313 383.198 828.994 381.777 828.71 380.349C828.426 378.92 828.177 377.486 827.963 376.045C827.75 374.605 827.571 373.16 827.428 371.71C827.286 370.261 827.179 368.809 827.107 367.355C827.035 365.9 827 364.445 827 362.988C827 361.532 827.035 360.076 827.107 358.621C827.179 357.167 827.286 355.715 827.428 354.266C827.571 352.816 827.75 351.371 827.963 349.931C828.177 348.49 828.426 347.056 828.71 345.627C828.994 344.199 829.313 342.779 829.667 341.366C830.021 339.953 830.409 338.55 830.832 337.156C831.254 335.762 831.711 334.38 832.202 333.009C832.692 331.638 833.217 330.279 833.774 328.934C834.331 327.588 834.921 326.257 835.544 324.94C836.167 323.624 836.821 322.324 837.507 321.039C838.194 319.755 838.912 318.488 839.66 317.239C840.409 315.99 841.188 314.76 841.997 313.549C842.806 312.338 843.644 311.148 844.512 309.978C845.38 308.808 846.275 307.661 847.199 306.534C848.123 305.409 849.074 304.306 850.052 303.227C851.03 302.148 852.034 301.094 853.064 300.064C854.094 299.034 855.148 298.03 856.227 297.052C857.306 296.074 858.409 295.123 859.534 294.199C860.661 293.275 861.808 292.38 862.978 291.512C864.148 290.644 865.338 289.806 866.549 288.997C867.76 288.188 868.99 287.409 870.239 286.66C871.488 285.912 872.755 285.194 874.039 284.507C875.324 283.821 876.624 283.167 877.94 282.544C879.257 281.921 880.588 281.331 881.934 280.774C883.279 280.217 884.638 279.692 886.009 279.202C887.38 278.711 888.762 278.254 890.156 277.832C891.55 277.409 892.953 277.021 894.366 276.667C895.779 276.313 897.199 275.994 898.627 275.71C900.056 275.426 901.49 275.177 902.931 274.963C904.371 274.75 905.816 274.571 907.266 274.428C908.715 274.286 910.167 274.179 911.621 274.107C913.076 274.035 914.532 274 915.988 274C917.445 274 918.9 274.035 920.354 274.107C921.809 274.179 923.261 274.286 924.71 274.428C926.16 274.571 927.605 274.75 929.045 274.963C930.486 275.177 931.92 275.426 933.349 275.71C934.777 275.994 936.198 276.313 937.61 276.667C939.023 277.021 940.426 277.409 941.82 277.832C943.213 278.254 944.596 278.711 945.967 279.202C947.339 279.692 948.697 280.217 950.042 280.774C951.388 281.331 952.719 281.921 954.035 282.544C955.352 283.167 956.652 283.821 957.937 284.507C959.221 285.194 960.488 285.912 961.737 286.66C962.986 287.409 964.216 288.188 965.427 288.997C966.638 289.806 967.828 290.644 968.998 291.512C970.168 292.38 971.316 293.275 972.441 294.199C973.567 295.123 974.67 296.074 975.749 297.052C976.828 298.03 977.882 299.034 978.912 300.064C979.942 301.094 980.946 302.148 981.924 303.227C982.902 304.306 983.853 305.409 984.777 306.534C985.7 307.661 986.596 308.808 987.464 309.978C988.331 311.148 989.17 312.338 989.979 313.549C990.788 314.76 991.567 315.99 992.315 317.239C993.064 318.488 993.782 319.755 994.469 321.039C995.155 322.324 995.81 323.624 996.432 324.94C997.055 326.257 997.645 327.588 998.202 328.934C998.759 330.279 999.284 331.638 999.774 333.009C1000.26 334.38 1000.72 335.762 1001.14 337.156C1001.57 338.55 1001.96 339.953 1002.31 341.366C1002.66 342.779 1002.98 344.199 1003.27 345.627C1003.55 347.056 1003.8 348.49 1004.01 349.931C1004.23 351.371 1004.4 352.816 1004.55 354.266C1004.69 355.715 1004.8 357.167 1004.87 358.621C1004.94 360.076 1004.98 361.532 1004.98 362.988Z" fill="white"/>
</g>
<path d="M839.663 362.986C839.663 393.209 857.217 419.306 882.686 431.68L846.267 331.915C842.028 341.418 839.663 351.9 839.663 362.986ZM967.52 359.141C967.52 349.713 964.129 343.165 961.235 338.097C957.361 331.756 953.722 326.477 953.722 320.197C953.722 313.209 959.066 306.647 966.555 306.647C966.893 306.647 967.197 306.675 967.534 306.684C953.956 294.212 935.864 286.658 915.987 286.658C889.314 286.658 865.849 300.353 852.201 321.077C853.999 321.115 855.681 321.143 857.128 321.143C865.09 321.143 877.469 320.197 877.469 320.197C881.572 319.92 882.073 325.981 877.942 326.477C877.942 326.477 873.82 326.974 869.226 327.194L897.027 409.892L913.729 359.806L901.833 327.194C897.73 326.974 893.828 326.477 893.828 326.477C889.716 326.206 890.189 319.916 894.297 320.197C894.297 320.197 906.924 321.143 914.417 321.143C922.408 321.143 934.763 320.197 934.763 320.197C938.871 319.92 939.362 325.981 935.255 326.477C935.255 326.477 931.101 326.974 926.511 327.194L954.083 409.245L961.712 383.823C965.591 373.903 967.52 365.702 967.52 359.141ZM917.321 369.646L894.423 436.2C901.271 438.237 908.498 439.314 915.987 439.314C924.867 439.314 933.391 437.768 941.343 434.987C941.161 434.649 940.941 434.303 940.786 433.933L917.321 369.646ZM982.976 326.346C983.313 328.777 983.496 331.391 983.496 334.191C983.496 341.956 982.03 350.663 977.679 361.567L954.373 428.991C977.065 415.765 992.315 391.153 992.315 362.991C992.315 349.722 988.919 337.24 982.976 326.346Z" fill="#01579B"/>
<mask id="mask18_82_23" style="mask-type:luminance" maskUnits="userSpaceOnUse" x="827" y="274" width="178" height="178">
<path d="M827 274H1004.98V451.976H827V274Z" fill="white"/>
</mask>
<g mask="url(#mask18_82_23)">
<path d="M827 362.988C827 412.039 866.909 451.976 915.988 451.976C965.067 451.976 1004.98 412.039 1004.98 362.988C1004.98 313.937 965.067 274 915.988 274C866.909 274 827 313.937 827 362.988ZM831.079 362.988C831.079 316.194 869.157 278.108 915.983 278.108C962.815 278.108 1000.89 316.194 1000.89 362.988C1000.89 409.782 962.815 447.878 915.988 447.878C869.166 447.878 831.079 409.782 831.079 362.988Z" fill="#01579B"/>
</g>
</svg>
